<svg xmlns="http://www.w3.org/2000/svg" width="30" height="30" viewBox="0 0 30 30">
  <defs>
    <style>
      .cls-1 {
        fill: #1b6ef2;
        fill-rule: evenodd;
      }
    </style>
  </defs>
  <path id="phone" class="cls-1" d="M250.739,2365.9l6.093-1.41a1.424,1.424,0,0,1,1.612.82l2.812,6.56a1.4,1.4,0,0,1-.4,1.64l-3.551,2.91a21.724,21.724,0,0,0,10.383,10.38l2.906-3.55a1.393,1.393,0,0,1,1.641-.4l6.562,2.81a1.42,1.42,0,0,1,.821,1.62l-1.407,6.09a1.408,1.408,0,0,1-1.371,1.09,27.186,27.186,0,0,1-27.187-27.19A1.411,1.411,0,0,1,250.739,2365.9Z" transform="translate(-249.656 -2364.47)"/>
</svg>
